<svg xmlns="http://www.w3.org/2000/svg" viewBox="0 0 1440 320">
          <path
            fill="#000dff"
            fill-opacity="1"
            d="M0,96L40,80C80,64,160,32,240,32C320,32,400,64,480,96C560,128,640,160,720,149.3C800,139,880,85,960,96C1040,107,1120,181,1200,213.3C1280,245,1360,235,1400,229.3L1440,224L1440,320L1400,320C1360,320,1280,320,1200,320C1120,320,1040,320,960,320C880,320,800,320,720,320C640,320,560,320,480,320C400,320,320,320,240,320C160,320,80,320,40,320L0,320Z"
          ></path>
        </svg>